# xmcd CD database file
# Copyright (C) 1995 Ti Kan
#
# Track frame offsets:
#	150
#	16165
#	31336
#	52035
#	72309
#	92883
#	112746
#	129840
#	148414
#	169854
#	189603
#	210465
#	230741
#
# Disc length: 3307 seconds
#
# Revision: 1
# Processed by: cddbd v1.4PL0 Copyright (c) Steve Scherf et al.
# Submitted via: NotifyCDPlayer(CDDB) 1.60beta7
#
DISCID=b60ce90d
DTITLE=Ilse de lange - Clean up
DYEAR=1900
DGENRE=
TTITLE0=All alone
TTITLE1=Thank you
TTITLE2=Deja vu
TTITLE3=New beginning
TTITLE4=Heavenless
TTITLE5=Follow
TTITLE6=Clean up
TTITLE7=Machine people
TTITLE8=Not waiting for you
TTITLE9=No reason to be shy
TTITLE10=Nobody really knows
TTITLE11=Here i am
TTITLE12=Let go
EXTD=
EXTT0=
EXTT1=
EXTT2=
EXTT3=
EXTT4=
EXTT5=
EXTT6=
EXTT7=
EXTT8=
EXTT9=
EXTT10=
EXTT11=
EXTT12=
PLAYORDER=
